<?xml version="1.0" encoding="UTF-8"?>
<svg xmlns="http://www.w3.org/2000/svg" xmlns:xlink="http://www.w3.org/1999/xlink" width="500pt" height="500pt" viewBox="0 0 500 500" version="1.2">
	<g id="surface1">
	<polygon points="221,94 222,94 224,94 226,94 230,94 233,94 235,93 238,93 239,93 240,93 242,93 244,93 248,93 254,93 258,93 261,93 263,93 264,93 264,92 264,94 265,97 266,98 267,101 267,103 267,106 266,108 266,111 265,113 265,117 264,119 264,121 264,123 264,125 264,127 263,129 263,131 263,133 263,137 263,139 263,141 263,142 263,144 263,146 263,149 263,152 263,155 263,158 263,160 263,163 263,164 263,166 263,168 263,171 263,172 263,174 263,176 262,178 262,180 262,184 261,187 261,192 260,195 260,198 260,200 259,203 259,205 259,208 258,210 258,212 257,213 257,215 257,216 257,217 257,218 256,219 256,221 255,223 255,225 255,227 254,228 254,230 254,231 254,233 254,234 254,235 253,237 252,238 252,241 252,244 251,245 251,247 251,248 251,250 251,251 251,253 251,255 250,258 250,260 250,263 250,265 250,267 250,270 249,273 249,275 249,277 249,279 249,280 249,282 249,283 249,284 249,286 248,287 248,288 248,289 248,290 248,291 248,292 248,294 248,296 248,298 248,299 247,300 247,301 247,302 247,303 247,306 246,307 246,308 246,309 246,310 246,311 246,313 246,315 246,317 246,319 246,321 246,323 246,325 246,327 246,329 246,330 247,331 247,333 247,335 247,337 247,340 246,343 246,345 246,346 246,348 246,349 246,351 246,353 246,354 246,356 246,357 247,358 247,360 247,361 248,362 250,364 251,366 252,369 253,371 254,373 254,374 255,375 255,377 256,379 256,381 256,382 257,383 257,384 257,385 257,386 258,387 258,389 259,390 259,393 260,394 260,396 261,398 262,401 263,402 263,403 264,404 264,405 265,405 265,406 267,408 268,409 269,410 270,411 271,411 271,412 273,414 275,414 277,415 279,415 281,416 285,418 290,419 296,419 299,419 300,420 301,420 302,420 304,422 305,423 307,423 309,424 312,426 314,426 316,427 318,427 318,428 319,428 321,428 322,428 326,430 329,431 332,431 335,431 337,431 338,431 341,432 343,432 348,432 352,432 357,431 359,431 360,431 362,431 365,431 368,430 370,430 372,430 374,430 375,430 375,429 376,429 378,428 380,428 383,427 385,426 386,426 387,425 389,424 391,423 392,423 393,422 396,419 399,418 400,417 400,416 401,414 403,411 403,410 404,410 404,408 406,405 408,402 409,398 410,397 411,395 411,394 412,392 412,389 413,386 414,384 415,382 415,381 415,379 415,377 415,374 416,371 417,366 417,363 418,359 419,356 420,353 420,348 421,344 422,341 422,339 422,338 423,337 423,336 424,334 424,333 425,331 425,329 426,326 427,324 428,320 428,319 429,318 429,317 429,316 429,314 429,312 429,310 429,308 430,306 430,304 430,303 430,302 430,301 430,300 430,299 428,299 427,299 426,299 425,299 424,299 423,299 422,300 421,300 420,300 419,300 418,301 417,302 417,303 416,304 414,306 413,308 412,311 411,314 411,316 410,318 410,319 409,321 409,323 408,325 408,326 408,328 407,329 407,331 406,332 405,333 405,335 404,335 403,336 401,337 398,340 395,341 392,344 391,344 391,345 390,345 388,346 387,347 386,347 385,347 383,347 381,348 379,348 378,348 376,348 373,348 370,349 367,350 366,350 365,350 364,350 363,350 361,350 359,350 358,350 357,350 356,349 355,349 354,348 353,347 352,346 351,345 350,343 348,341 346,340 345,339 344,339 343,337 342,337 342,336 341,336 339,335 338,333 337,333 335,332 334,331 333,330 332,329 330,327 329,325 328,324 327,322 325,320 323,317 321,315 319,313 317,311 317,309 316,308 315,307 314,306 313,304 312,302 310,298 308,295 306,292 304,290 303,289 303,288 303,287 302,286 302,284 302,283 301,281 301,279 301,277 301,275 300,273 300,271 300,270 300,268 300,266 300,263 300,261 300,258 300,256 300,255 300,254 300,253 301,251 301,249 301,246 302,244 302,240 303,236 303,231 304,227 304,225 304,223 305,222 305,220 305,218 305,216 306,212 306,208 308,203 308,199 309,195 309,192 309,189 309,187 309,184 309,182 310,177 310,171 311,165 311,159 311,154 311,152 311,151 311,150 311,149 312,148 312,146 312,145 312,144 312,142 312,139 313,137 313,135 313,133 314,130 316,126 318,120 319,116 321,111 321,110 321,109 321,108 323,104 324,100 325,97 325,96 326,96 327,96 328,96 329,96 330,96 332,95 334,95 337,95 338,95 339,95 341,95 343,95 346,94 349,94 350,94 351,94 353,94 355,94 357,94 360,95 364,95 370,96 377,96 384,96 388,96 391,96 393,95 394,95 395,95 396,95 399,95 402,96 406,96 409,97 412,97 415,97 418,96 420,96 421,96 422,96 424,95 425,94 426,94 427,94 428,94 428,93 429,93 430,91 432,87 433,83 433,79 433,77 433,76 433,75 433,73 432,71 432,69 432,67 432,65 432,60 431,56 430,52 430,48 430,44 430,43 430,42 429,40 429,39 429,38 429,36 429,34 428,31 428,29 428,27 427,27 425,28 424,29 422,29 421,29 419,29 417,30 415,30 412,30 410,29 407,29 403,29 400,29 398,29 397,29 396,29 395,29 392,29 390,30 387,30 385,30 382,30 379,30 376,30 374,30 371,30 370,30 367,30 365,30 363,30 362,30 360,30 358,30 354,28 350,28 345,28 341,28 337,27 334,27 331,27 329,27 326,27 325,27 323,27 321,27 319,27 317,27 314,27 310,27 307,26 302,26 298,26 293,26 290,26 288,25 286,25 285,25 283,25 281,25 279,25 278,25 277,25 276,25 274,24 271,23 268,23 265,23 263,23 261,23 260,22 258,22 256,22 252,22 248,22 244,22 241,22 239,21 236,21 234,21 231,21 230,21 228,21 227,21 226,21 224,21 222,21 219,21 216,21 212,21 208,21 205,21 202,22 199,22 194,23 191,23 188,23 187,23 186,23 185,23 183,23 181,23 178,23 176,23 174,23 173,23 171,23 169,23 166,24 163,24 161,25 159,25 157,25 156,25 153,25 150,25 147,25 144,25 143,25 141,25 140,25 137,24 136,24 133,23 132,23 130,23 127,22 126,22 124,22 123,22 122,22 120,22 118,23 115,23 112,24 110,24 107,25 104,26 101,26 99,27 98,27 96,27 94,28 92,29 90,30 89,31 88,31 87,31 85,32 83,32 82,33 80,34 78,35 75,36 72,37 70,38 66,40 64,41 62,42 61,42 59,43 58,44 57,44 56,46 55,47 53,48 52,49 51,51 49,52 48,54 46,56 45,58 43,61 41,63 40,65 38,67 37,69 36,71 35,73 34,75 33,76 33,77 32,78 31,79 29,81 28,83 26,85 25,86 24,87 24,89 23,90 21,92 20,93 20,94 19,96 19,97 18,98 17,101 16,104 14,107 12,112 11,114 9,118 8,121 7,122 6,123 5,124 5,125 5,126 4,126 4,127 4,128 4,129 4,130 4,131 3,132 3,133 3,134 4,134 5,134 8,135 11,136 14,136 15,137 16,137 17,137 18,137 19,137 20,137 21,138 22,138 24,138 25,138 27,137 29,134 31,133 33,130 34,129 35,127 36,125 37,123 38,121 39,119 39,118 40,117 40,116 40,115 41,114 42,113 44,112 45,110 47,108 48,106 49,105 51,104 53,102 53,101 54,101 54,100 56,98 57,97 58,97 59,96 60,95 61,93 62,93 63,92 65,92 66,91 68,90 69,89 70,89 71,89 72,89 74,88 78,87 82,86 86,85 88,84 89,84 90,84 92,84 94,84 96,84 96,83 97,83 98,83 100,83 102,83 106,83 109,83 112,82 114,82 115,82 116,82 117,82 118,82 120,81 122,81 123,81 124,81 125,81 127,81 129,82 131,82 133,83 135,83 136,83 137,83 138,83 139,83 140,83 140,85 140,88 140,91 139,95 139,97 137,100 137,101 137,102 137,103 136,104 136,105 136,106 135,108 135,109 135,110 134,112 134,113 133,116 133,117 132,120 131,122 131,125 130,127 129,130 129,132 129,134 128,135 128,137 128,138 128,139 127,141 127,143 127,145 126,147 126,148 126,149 126,151 125,153 125,155 124,158 124,160 124,163 124,166 124,170 124,172 124,175 125,178 125,180 125,182 125,183 125,185 125,187 125,188 124,191 124,193 124,196 123,199 123,203 122,206 121,211 120,215 120,217 120,219 120,220 120,221 120,222 119,224 119,226 119,228 119,229 119,231 118,234 118,235 118,237 118,238 118,239 118,240 117,241 116,242 116,243 115,244 114,245 112,247 111,249 110,251 109,253 108,254 108,255 107,257 106,259 105,260 104,262 104,263 103,265 102,268 100,273 98,276 98,278 98,279 97,279 97,280 96,281 96,282 95,284 94,286 93,288 93,290 92,291 91,292 91,293 90,294 90,295 89,296 89,297 88,298 87,299 86,301 85,303 84,304 83,306 82,308 82,309 81,310 80,312 79,314 78,315 78,316 77,317 77,318 76,320 74,323 73,325 71,327 70,328 69,329 69,331 67,331 66,332 65,333 63,335 62,336 61,337 60,339 59,340 58,340 57,341 56,343 54,344 53,346 52,348 49,352 45,357 43,361 40,366 38,368 38,369 37,369 37,370 36,372 36,373 35,374 34,376 33,377 32,378 32,379 32,381 31,382 31,383 30,385 29,386 29,387 29,388 29,389 29,390 29,391 29,393 29,394 29,395 30,395 31,397 32,398 33,400 34,401 37,403 40,404 41,405 43,406 44,408 45,410 46,412 46,413 47,413 47,414 48,414 48,415 49,416 50,416 50,417 51,418 52,418 53,419 55,419 57,420 58,420 60,420 61,421 63,422 66,423 68,423 69,423 70,423 71,424 72,424 73,424 75,424 77,424 78,424 79,425 83,426 86,426 90,426 93,425 95,425 97,425 99,425 102,425 105,425 107,425 108,425 109,425 111,424 112,424 113,424 114,424 115,424 117,424 120,423 123,423 126,423 127,423 128,423 129,422 131,421 133,420 136,419 137,419 138,419 139,418 139,417 140,416 140,415 141,414 142,412 142,409 142,407 143,406 143,404 144,402 144,400 144,399 144,398 144,395 145,392 146,388 147,386 147,385 147,384 147,382 148,379 148,376 148,374 149,372 149,370 149,366 149,364 149,361 149,360 149,357 149,356 149,353 149,351 149,347 149,344 149,341 149,338 149,335 149,332 149,331 149,329 149,328 149,327 149,324 150,321 151,317 151,315 151,311 152,307 152,303 152,300 153,297 153,296 153,295 153,294 154,292 155,290 155,288 155,286 156,286 156,284 156,283 157,280 157,277 158,274 159,271 159,270 159,269 160,267 161,263 161,259 162,257 162,255 163,253 163,250 164,248 165,245 165,242 165,239 166,235 166,232 166,230 166,229 167,227 167,226 168,222 168,220 168,216 168,213 169,208 169,203 169,199 170,194 170,191 170,189 170,187 170,186 170,184 170,182 171,179 172,176 173,170 173,165 174,160 174,155 175,151 175,147 175,143 176,141 176,139 176,138 176,136 176,134 176,131 177,127 177,124 177,122 177,120 177,118 177,115 177,113 178,110 178,108 178,106 178,104 179,100 180,97 180,95 180,94 180,93 180,92 180,91 180,90 181,89 181,88 181,86 182,85 182,84 184,84 185,84 187,85 190,87 194,87 197,87 199,87 200,87 201,87 202,87 203,87 205,87 207,87 208,87 209,87 210,88 211,88 213,88 214,88 215,88 216,88 217,88 218,88]]
" fill="transparent" stroke="black"/>
	</g>
</svg>
